<svg xmlns="http://www.w3.org/2000/svg" viewBox="0 0 414.7 109.18"><defs><style>.cls-1{fill:#210c69;}.cls-2{fill:#6232f5;}.cls-3{fill:#5320e1;}.cls-4,.cls-5{fill:#fff;}.cls-5{opacity:0.4;}</style></defs><g id="Layer_2" data-name="Layer 2"><g id="Layer_1-2" data-name="Layer 1"><path class="cls-1" d="M137.15,33.83h12.39V14.22h14.9V33.83h12.63V49.52H164.44v51.26h-14.9V49.52H137.15Z"/><path class="cls-1" d="M180.9,67.44c0-19.49,14.27-35,31.57-35s31.62,15.43,31.62,35-14.2,34.71-31.62,34.71S180.9,87.18,180.9,67.44Zm31.57,19c9.53,0,16.72-8.44,16.72-19s-7.25-19.15-16.72-19.15-16.72,8.69-16.72,19.15S202.94,86.4,212.47,86.4Z"/><path class="cls-2" d="M282.06,102c-16.78,0-28.58-16.48-28.58-34.52,0-17.52,12.33-34.78,28.7-34.78,7.83,0,14.26,3.79,18.88,10.78V7H316v93.75h-14.9V91C296.44,98,290,102,282.06,102Zm3-15.56c9.53,0,16.78-8.44,16.78-19S294.51,48.22,285,48.22s-16.66,8.69-16.66,19.15S275.51,86.4,285,86.4Z"/><path class="cls-2" d="M327.51,67.44c0-19.49,14.26-35,31.56-35s31.63,15.43,31.63,35-14.21,34.71-31.63,34.71S327.51,87.18,327.51,67.44Zm31.56,19c9.53,0,16.72-8.44,16.72-19s-7.25-19.15-16.72-19.15-16.71,8.69-16.71,19.15S349.55,86.4,359.07,86.4Z"/><path class="cls-2" d="M405.63,102.09c-5,0-9.05-4.64-9.05-10.2s4-10.2,9.05-10.2,9.07,4.71,9.07,10.2S410.54,102.09,405.63,102.09Z"/><rect class="cls-3" width="109.18" height="109.18" rx="33.25"/><path class="cls-4" d="M99,9.23,50.38,58,40,47.2a10.06,10.06,0,0,0-14.53-.37h0a10.52,10.52,0,0,0,0,14.63L43.65,79.67a10.05,10.05,0,0,0,14,0l6.2-6.27L109,27.62C106.49,14.39,99,9.23,99,9.23Z"/><path class="cls-5" d="M109,27.62,109.34,49l-41,41.69a9.66,9.66,0,0,1-13.72,0l-4-4L43.3,79.41c2.91,2.42,7.91,4.68,12.89,1.39l3.89-3.71a0,0,0,0,0,0,0Z"/></g></g></svg>