<svg xmlns="http://www.w3.org/2000/svg" viewBox="0 0 350.96 120.29"><defs><style>.cls-1{fill:#210c69;}.cls-2{fill:#6232f5;}</style></defs><g id="Layer_2" data-name="Layer 2"><g id="Layer_1-2" data-name="Layer 1"><path class="cls-1" d="M0,33.9H15.67V9.09H34.52V33.9h16V53.74h-16v64.81H15.67V53.74H0Z"/><path class="cls-1" d="M55.33,76.39c0-24.64,18-44.23,39.91-44.23s40,19.51,40,44.23c0,24.88-18,43.9-40,43.9S55.33,101.36,55.33,76.39Zm39.91,24c12.05,0,21.14-10.66,21.14-24,0-13.23-9.16-24.23-21.14-24.23S74.1,63.08,74.1,76.31C74.1,89.7,83.19,100.36,95.24,100.36Z"/><path class="cls-2" d="M183.24,120C162,120,147.1,99.21,147.1,76.39c0-22.16,15.59-44,36.29-44,9.9,0,18,4.79,23.87,13.64V0h18.85V118.55H207.26v-12.4C201.42,115.08,193.22,120,183.24,120ZM187,100.36c12.05,0,21.21-10.66,21.21-24,0-13.23-9.24-24.23-21.21-24.23S166,63.08,166,76.31,175,100.36,187,100.36Z"/><path class="cls-2" d="M240.71,76.39c0-24.64,18-44.23,39.92-44.23s40,19.51,40,44.23c0,24.88-18,43.9-40,43.9C258.45,120.29,240.71,101.36,240.71,76.39Zm39.92,24c12.05,0,21.14-10.66,21.14-24,0-13.23-9.17-24.23-21.14-24.23s-21.14,11-21.14,24.23C259.49,89.7,268.58,100.36,280.63,100.36Z"/><path class="cls-2" d="M339.5,120.21c-6.35,0-11.45-5.87-11.45-12.9s5.1-12.9,11.45-12.9,11.46,6,11.46,12.9S345.71,120.21,339.5,120.21Z"/></g></g></svg>